SplineFontDB: 3.0
FontName: A_Spice_Bazaar_Heading
FullName: A_Spice_Bazaar_Heading
FamilyName: A_Spice_Bazaar_Heading
Weight: Regular
Copyright: Copyright (c) 2017, inemanicka
UComments: "2017-11-12: Created with FontForge (http://fontforge.org)"
Version: 001.000
ItalicAngle: 0
UnderlinePosition: -102
UnderlineWidth: 50
Ascent: 820
Descent: 204
InvalidEm: 0
LayerCount: 2
Layer: 0 0 "Back" 1
Layer: 1 0 "Fore" 0
XUID: [1021 260 -1120133661 23103]
StyleMap: 0x0000
FSType: 0
OS2Version: 0
OS2_WeightWidthSlopeOnly: 0
OS2_UseTypoMetrics: 1
CreationTime: 1510465065
ModificationTime: 1512670623
PfmFamily: 49
TTFWeight: 500
TTFWidth: 5
LineGap: 92
VLineGap: 92
OS2TypoAscent: 0
OS2TypoAOffset: 1
OS2TypoDescent: 0
OS2TypoDOffset: 1
OS2TypoLinegap: 92
OS2WinAscent: 0
OS2WinAOffset: 1
OS2WinDescent: 0
OS2WinDOffset: 1
HheadAscent: 0
HheadAOffset: 1
HheadDescent: 0
HheadDOffset: 1
OS2XHeight: 100
OS2Vendor: 'PfEd'
Lookup: 258 0 0 "Elango_one_kern" { "Elango_one_kern-1" [153,15,0] } []
MarkAttachClasses: 1
DEI: 91125
LangName: 1033
Encoding: iso8859-5
Compacted: 1
UnicodeInterp: none
NameList: AGL For New Fonts
DisplaySize: -48
AntiAlias: 1
FitToEm: 0
WidthSeparation: 77
WinInfo: 15 15 4
BeginPrivate: 0
EndPrivate
Grid
135.666646322 1332 m 0
 135.666646322 -716 l 1024
  Named: "temp"
107.997070312 -1815.79003906 m 0
 343.4921875 -1815.79003906 l 1024
  Named: "lelow curve start"
110.374023438 -2128.01660156 m 4
 345.868164062 -2128.01660156 l 1028
  Named: "lerge letter ends"
107.997070312 1445.36621094 m 0
 343.4921875 1445.36621094 l 1024
  Named: "483 - small letter h start"
107.997070312 1812.50878906 m 0
 343.4921875 1812.50878906 l 1024
  Named: "547 - small letter height"
107.997070312 -4572.15039062 m 0
 343.4921875 -4572.15039062 l 1024
203.666992188 6315.60449219 m 0
 203.666992188 -5432.61425781 l 1024
208.572265625 6315.60449219 m 0
 208.572265625 -5432.61425781 l 1024
107.997070312 3011.42871094 m 0
 343.4921875 3011.42871094 l 1024
107.997070312 -958.19921875 m 0

StartChar: A
Encoding: 65 65 0
Width: 312
VWidth: -123
Flags: HW
LayerCount: 2
Fore
SplineSet
108 277 m 1
 201 277 l 1
 154 692 l 1
 108 277 l 1
98 216 m 1
 84 64 l 1
 84 -119 l 1
 84 -125 l 1
 79 -125 l 1
 54 -125 l 1
 49 -125 l 1
 49 -119 l 1
 49 78 l 1
 49 78 l 1
 49 78 l 1
 144 924 l 1
 145 929 l 1
 149 929 l 1
 159 929 l 1
 164 929 l 1
 164 924 l 1
 259 78 l 1
 259 78 l 1
 259 78 l 1
 259 -119 l 1
 259 -125 l 1
 254 -125 l 1
 229 -125 l 1
 224 -125 l 1
 224 -119 l 1
 224 64 l 1
 211 216 l 1
 98 216 l 1
EndSplineSet
EndChar

StartChar: B
Encoding: 66 66 1
Width: 330
VWidth: -123
Flags: HW
LayerCount: 2
Fore
SplineSet
100 510 m 1
 175 510 l 1
 193 526 210 588 220 635 c 0
 224 653 234 716 223 783 c 0
 223 786 221 789 220 793 c 0
 211 826 185 858 180 856 c 2
 179 855 l 1
 179 855 l 1
 100 855 l 1
 100 510 l 1
55 950 m 1
 60 950 l 1
 178 949 l 1
 178 949 l 1
 178 949 l 2
 197 948 258 883 262 771 c 0
 264 714 262 670 257 630 c 0
 248 562 227 497 222 482 c 1
 234 467 268 403 273 305 c 0
 277 224 273 97 269 57 c 0
 262 0 246 -72 203 -84 c 6
 202 -84 l 5
 202 -84 l 5
 60 -85 l 5
 55 -85 l 5
 55 -79 l 5
 55 944 l 1
 55 950 l 1
100 -10 m 1
 192 -10 l 1
 223 12 232 80 234 99 c 0
 236 130 241 251 233 311 c 0
 232 316 231 322 230 327 c 0
 218 383 188 414 182 413 c 2
 181 413 l 1
 181 413 l 1
 100 413 l 1
 100 -10 l 1
EndSplineSet
EndChar

StartChar: i
Encoding: 105 105 2
Width: 263
VWidth: -113
Flags: HW
LayerCount: 2
Fore
SplineSet
140 641 m 1
 140 646 l 1
 140 782 l 1
 140 787 l 1
 145 787 l 1
 202 787 l 1
 207 787 l 1
 207 782 l 1
 207 646 l 1
 207 641 l 1
 202 641 l 1
 145 641 l 1
 140 641 l 1
163 -119 m 1
 163 -114 l 1
 163 496 l 1
 105 496 l 5
 100 496 l 5
 100 501 l 5
 100 569 l 5
 100 575 l 5
 105 575 l 5
 205 575 l 1
 210 575 l 1
 210 569 l 1
 210 -114 l 1
 210 -119 l 1
 205 -119 l 1
 168 -119 l 1
 163 -119 l 1
EndSplineSet
EndChar

StartChar: C
Encoding: 67 67 3
Width: 326
VWidth: -123
Flags: HW
LayerCount: 2
Fore
SplineSet
150 -56 m 6
 150 -56 184 -56 188 -56 c 4
 202 -56 233 -5 233 80 c 2
 233 211 l 1
 233 216 l 1
 238 216 l 1
 262 216 l 1
 267 216 l 1
 267 211 l 1
 267 85 l 2
 267 -62 233 -125 188 -125 c 2
 150 -125 l 2
 82 -125 49 18 49 207 c 2
 49 597 l 2
 49 805 96 929 150 929 c 2
 188 929 l 2
 233 929 267 869 267 719 c 2
 267 597 l 1
 267 591 l 1
 262 591 l 1
 238 591 l 1
 233 591 l 1
 233 597 l 1
 233 724 l 2
 233 812 202 858 188 857 c 2
 188 857 l 1
 188 857 l 1
 150 857 l 2
 111 853 93 709 93 596 c 2
 93 207 l 2
 93 91 103 -52 150 -56 c 6
EndSplineSet
EndChar

StartChar: D
Encoding: 68 68 4
Width: 333
VWidth: -123
Flags: HW
LayerCount: 2
Fore
SplineSet
100 -30 m 1
 144 -30 l 2
 186 -30 240 56 240 205 c 2
 240 596 l 2
 240 748 184 834 144 834 c 2
 100 834 l 1
 100 -30 l 1
274 207 m 2
 274 16 223 -125 144 -125 c 2
 70 -125 l 1
 65 -125 l 1
 65 -119 l 1
 65 923 l 1
 65 929 l 1
 70 929 l 1
 144 929 l 2
 224 929 274 770 274 597 c 2
 274 207 l 2
EndSplineSet
EndChar

StartChar: E
Encoding: 69 69 5
Width: 323
VWidth: -123
Flags: HW
LayerCount: 2
Fore
SplineSet
65 -125 m 1
 65 -119 l 1
 65 923 l 1
 65 929 l 1
 70 929 l 1
 270 929 l 1
 275 929 l 1
 275 923 l 1
 275 840 l 1
 275 834 l 1
 270 834 l 1
 100 834 l 1
 100 434 l 1
 255 434 l 1
 260 434 l 1
 260 428 l 1
 260 372 l 1
 260 367 l 1
 255 367 l 1
 100 367 l 1
 100 -30 l 1
 270 -30 l 1
 275 -30 l 1
 275 -36 l 1
 275 -119 l 1
 275 -125 l 1
 270 -125 l 1
 70 -125 l 1
 65 -125 l 1
EndSplineSet
EndChar

StartChar: F
Encoding: 70 70 6
Width: 320
VWidth: -123
Flags: HW
LayerCount: 2
Fore
SplineSet
55 -125 m 5
 55 -119 l 5
 55 923 l 5
 55 929 l 5
 60 929 l 5
 270 929 l 1
 275 929 l 1
 275 923 l 1
 275 840 l 1
 275 834 l 1
 270 834 l 1
 100 834 l 1
 100 432 l 1
 255 432 l 1
 260 432 l 1
 260 426 l 1
 260 372 l 1
 260 367 l 1
 255 367 l 1
 100 367 l 1
 100 -119 l 1
 100 -125 l 1
 95 -125 l 1
 60 -125 l 5
 55 -125 l 5
EndSplineSet
EndChar

StartChar: G
Encoding: 71 71 7
Width: 329
VWidth: -123
Flags: HW
LayerCount: 2
Fore
SplineSet
267 642 m 1
 262 642 l 1
 237 642 l 1
 232 642 l 1
 232 648 l 1
 232 744 l 17
 232 795 221 853 188 853 c 9
 137 853 l 1
 137 853 l 1
 136 853 l 17
 100 857 92 675 92 616 c 9
 92 160 l 17
 92 97 112 -27 137 -27 c 9
 188 -27 l 17
 206 -27 232 127 232 156 c 9
 232 267 l 1
 170 267 l 1
 165 267 l 1
 165 272 l 1
 165 356 l 1
 165 362 l 1
 170 362 l 1
 262 362 l 1
 267 362 l 1
 267 356 l 1
 267 -99 l 1
 267 -105 l 1
 262 -105 l 1
 237 -105 l 1
 232 -105 l 1
 232 -99 l 1
 232 -33 l 1
 224 -64 196 -105 171 -105 c 9
 137 -105 l 17
 81 -105 38 34 38 160 c 9
 38 617 l 17
 38 739 76 949 137 949 c 9
 188 949 l 17
 227 949 267 883 267 744 c 9
 267 648 l 1
 267 642 l 1
EndSplineSet
EndChar

StartChar: H
Encoding: 72 72 8
Width: 339
VWidth: -123
Flags: HW
LayerCount: 2
Fore
SplineSet
65 -125 m 1
 65 -119 l 1
 65 923 l 1
 65 929 l 1
 70 929 l 1
 95 929 l 1
 100 929 l 1
 100 923 l 1
 100 436 l 1
 240 434 l 1
 240 923 l 1
 240 929 l 1
 245 929 l 1
 269 929 l 1
 274 929 l 1
 274 923 l 1
 274 -119 l 1
 274 -125 l 1
 269 -125 l 1
 245 -125 l 1
 240 -125 l 1
 240 -119 l 1
 240 374 l 1
 100 374 l 1
 100 -119 l 1
 100 -125 l 1
 95 -125 l 1
 70 -125 l 1
 65 -125 l 1
EndSplineSet
EndChar

StartChar: I
Encoding: 73 73 9
Width: 250
VWidth: -123
Flags: HW
LayerCount: 2
Fore
SplineSet
44 929 m 1
 49 929 l 1
 199 929 l 1
 204 929 l 1
 204 923 l 1
 204 840 l 1
 204 834 l 1
 199 834 l 1
 148 834 l 1
 148 -30 l 1
 199 -30 l 1
 204 -30 l 1
 204 -36 l 1
 204 -119 l 1
 204 -125 l 1
 199 -125 l 1
 49 -125 l 1
 44 -125 l 1
 44 -119 l 1
 44 -35 l 1
 44 -29 l 1
 49 -29 l 1
 103 -30 l 5
 103 834 l 5
 49 834 l 1
 44 834 l 1
 44 840 l 1
 44 923 l 1
 44 929 l 1
EndSplineSet
EndChar

StartChar: J
Encoding: 74 74 10
Width: 322
VWidth: -123
Flags: HW
LayerCount: 2
Fore
SplineSet
225 929 m 1
 230 929 l 1
 255 929 l 1
 260 929 l 1
 260 923 l 1
 260 272 l 2
 260 61 241 -125 181 -125 c 2
 130 -125 l 2
 68 -125 51 37 51 211 c 2
 51 277 l 1
 51 282 l 1
 56 282 l 1
 80 282 l 1
 85 282 l 1
 85 277 l 1
 85 211 l 2
 85 89 100 -27 133 -27 c 2
 181 -29 l 2
 204 -29 225 86 225 273 c 2
 225 923 l 1
 225 929 l 1
EndSplineSet
EndChar

StartChar: K
Encoding: 75 75 11
Width: 311
VWidth: -123
Flags: HW
LayerCount: 2
Fore
SplineSet
65 -125 m 1
 65 -119 l 1
 65 923 l 1
 65 929 l 1
 70 929 l 1
 94 929 l 1
 99 929 l 1
 99 923 l 1
 99 436 l 1
 224 925 l 1
 225 929 l 1
 229 929 l 1
 262 929 l 1
 268 929 l 1
 266 922 l 1
 141 437 l 1
 273 -118 l 1
 275 -125 l 1
 269 -125 l 1
 238 -125 l 1
 234 -125 l 1
 233 -121 l 1
 118 359 l 1
 99 280 l 1
 99 -119 l 1
 99 -125 l 1
 94 -125 l 1
 70 -125 l 1
 65 -125 l 1
EndSplineSet
EndChar

StartChar: L
Encoding: 76 76 12
Width: 320
VWidth: -123
Flags: HW
LayerCount: 2
Fore
SplineSet
65 -125 m 1
 65 -119 l 1
 65 923 l 1
 65 929 l 1
 70 929 l 1
 95 929 l 1
 100 929 l 1
 100 923 l 1
 100 -30 l 1
 270 -30 l 1
 275 -30 l 1
 275 -36 l 1
 275 -119 l 1
 275 -125 l 1
 270 -125 l 1
 70 -125 l 1
 65 -125 l 1
EndSplineSet
EndChar

StartChar: M
Encoding: 77 77 13
Width: 341
VWidth: -123
InSpiro: 1
Flags: HW
LayerCount: 2
Fore
SplineSet
64.599609375 -123.796875 m 1
 64.599609375 -118.296875 l 1
 64.599609375 922.673828125 l 1
 64.599609375 928.1171875 l 1
 69.599609375 928.1171875 l 1
 96.9384765625 928.1171875 l 1
 101.249023438 928.1171875 l 1
 101.883789062 923.426757812 l 1
 169.478515625 423.764648438 l 1
 237.073242188 923.426757812 l 1
 237.708007812 928.1171875 l 1
 242.018554688 928.1171875 l 1
 269.357421875 928.1171875 l 1
 274.357421875 928.1171875 l 1
 274.357421875 922.673828125 l 1
 274.318359375 -118.296875 l 1
 274.318359375 -123.796875 l 1
 269.318359375 -123.796875 l 1
 244.358398438 -123.796875 l 1
 239.358398438 -123.796875 l 1
 239.358398438 -118.296875 l 1
 239.358398438 674.474609375 l 1
 174.423828125 193.904296875 l 1
 169.484375 157.344726562 l 1
 164.533203125 193.903320312 l 1
 99.5986328125 673.362304688 l 1
 99.5986328125 -118.296875 l 1
 99.5986328125 -123.796875 l 1
 94.5986328125 -123.796875 l 1
 69.599609375 -123.796875 l 1
 64.599609375 -123.796875 l 1
EndSplineSet
EndChar

StartChar: N
Encoding: 78 78 14
Width: 339
VWidth: -123
Flags: HW
LayerCount: 2
Fore
SplineSet
65 -125 m 1
 65 -119 l 1
 65 923 l 1
 65 929 l 1
 70 929 l 1
 99 929 l 1
 103 929 l 1
 104 924 l 1
 240 104 l 1
 240 923 l 1
 240 929 l 1
 245 929 l 1
 269 929 l 1
 274 929 l 1
 274 923 l 1
 274 -119 l 1
 274 -125 l 1
 269 -125 l 1
 245 -125 l 1
 240 -125 l 1
 240 -120 l 1
 100 724 l 1
 100 -119 l 1
 100 -125 l 1
 95 -125 l 1
 70 -125 l 1
 65 -125 l 1
EndSplineSet
EndChar

StartChar: O
Encoding: 79 79 15
Width: 328
VWidth: -123
Flags: HW
LayerCount: 2
Fore
SplineSet
93 208 m 2
 93 98 114 -29 137 -29 c 2
 188 -29 l 2
 211 -29 233 97 233 208 c 2
 233 596 l 2
 233 698 217 833 188 833 c 2
 137 833 l 2
 107 833 93 699 93 596 c 2
 93 208 l 2
137 -125 m 2
 90 -125 58 12 58 207 c 2
 58 599 l 2
 58 790 91 929 138 929 c 2
 188 929 l 2
 233 929 267 789 267 597 c 2
 267 207 l 2
 267 13 238 -125 188 -125 c 2
 137 -125 l 2
EndSplineSet
EndChar

StartChar: P
Encoding: 80 80 16
Width: 328
VWidth: -123
Flags: HW
LayerCount: 2
Fore
SplineSet
100 833 m 1
 100 423 l 1
 169 423 l 2
 200 423 240 474 240 550 c 2
 240 692 l 2
 240 755 194 833 169 833 c 2
 100 833 l 1
65 -125 m 1
 65 -119 l 1
 65 923 l 1
 65 929 l 1
 70 929 l 1
 169 929 l 2
 220 929 274 820 274 691 c 2
 274 550 l 2
 274 415 221 334 169 334 c 2
 100 334 l 1
 100 -119 l 1
 100 -125 l 1
 95 -125 l 1
 70 -125 l 1
 65 -125 l 1
EndSplineSet
EndChar

StartChar: Q
Encoding: 81 81 17
Width: 329
VWidth: -119
Flags: HW
LayerCount: 2
Fore
SplineSet
138 -35 m 1
 139 -35 l 2
 141 -35 183 -41 190 -27 c 1
 148 133 l 1
 147 135 l 1
 149 137 l 1
 171 176 l 1
 177 186 l 1
 180 174 l 1
 214 38 l 1
 221 61 233 110 233 203 c 2
 233 599 l 2
 233 703 217 839 188 839 c 2
 138 839 l 2
 108 839 93 703 93 598 c 2
 93 203 l 2
 93 92 115 -35 138 -35 c 2
 138 -35 l 1
215 -90 m 2
 204 -91 l 1
 203 -86 l 1
 210 -86 l 2
 211 -86 215 -89 215 -90 c 2
223 -158 m 1
 208 -104 l 1
 203 -110 195 -119 185 -119 c 2
 138 -119 l 2
 91 -119 58 16 58 211 c 2
 58 604 l 2
 58 795 91 933 138 933 c 2
 188 933 l 2
 233 933 268 795 268 603 c 2
 268 212 l 2
 268 69 239 -20 235 -33 c 1
 268 -155 l 1
 269 -162 l 1
 263 -162 l 1
 228 -162 l 1
 224 -162 l 1
 223 -158 l 1
EndSplineSet
EndChar

StartChar: R
Encoding: 82 82 18
Width: 327
VWidth: -123
Flags: HW
LayerCount: 2
Fore
SplineSet
100 833 m 1
 100 420 l 1
 170 420 l 2
 201 420 240 470 240 546 c 2
 240 692 l 2
 240 755 195 833 170 833 c 2
 100 833 l 1
45 -125 m 5
 45 -119 l 5
 45 923 l 5
 45 929 l 5
 50 929 l 5
 170 929 l 2
 221 929 275 820 275 692 c 2
 275 546 l 2
 275 410 211 351 198 340 c 1
 275 -118 l 1
 276 -125 l 1
 270 -125 l 1
 241 -125 l 1
 236 -125 l 1
 236 -120 l 1
 160 337 l 1
 100 337 l 1
 100 -119 l 1
 100 -125 l 1
 95 -125 l 1
 50 -125 l 5
 45 -125 l 5
EndSplineSet
EndChar

StartChar: S
Encoding: 83 83 19
Width: 322
VWidth: -123
Flags: HW
LayerCount: 2
Fore
SplineSet
54 236 m 1
 59 236 l 1
 84 236 l 1
 89 236 l 1
 89 230 l 1
 89 142 l 2
 89 46 127 -29 147 -29 c 2
 172 -29 l 2
 215 -28 229 71 229 140 c 0
 229 347 135 329 84 455 c 0
 64 506 54 567 54 635 c 2
 54 696 l 2
 54 828 91 929 147 929 c 2
 172 929 l 2
 224 929 264 796 264 659 c 2
 264 563 l 1
 264 557 l 1
 259 557 l 1
 234 557 l 1
 229 557 l 1
 229 563 l 1
 229 659 l 2
 229 764 193 832 172 833 c 2
 147 833 l 2
 104 833 89 742 89 661 c 0
 89 454 185 474 233 354 c 0
 252 304 264 243 264 174 c 2
 264 106 l 2
 264 -27 228 -125 172 -125 c 2
 147 -125 l 2
 96 -125 54 4 54 142 c 2
 54 230 l 1
 54 236 l 1
EndSplineSet
EndChar

StartChar: T
Encoding: 84 84 20
Width: 286
VWidth: -123
Flags: HW
LayerCount: 2
Fore
SplineSet
128 -125 m 1
 128 -119 l 1
 128 846 l 1
 32 846 l 5
 27 846 l 5
 27 852 l 5
 27 923 l 5
 27 929 l 5
 32 929 l 5
 252 929 l 1
 257 929 l 1
 257 923 l 1
 257 852 l 1
 257 846 l 1
 252 846 l 1
 160 846 l 1
 160 -119 l 1
 160 -125 l 1
 155 -125 l 1
 133 -125 l 1
 128 -125 l 1
EndSplineSet
EndChar

StartChar: U
Encoding: 85 85 21
Width: 333
VWidth: -123
Flags: HW
LayerCount: 2
Fore
SplineSet
234 929 m 1
 240 929 l 1
 264 929 l 1
 268 929 l 1
 268 923 l 1
 268 140 l 2
 268 12 221 -125 176 -125 c 2
 152 -125 l 2
 108 -125 60 12 60 140 c 2
 60 923 l 1
 60 929 l 1
 64 929 l 1
 90 929 l 1
 94 929 l 1
 94 923 l 1
 94 140 l 2
 94 63 127 -30 152 -30 c 2
 176 -30 l 2
 202 -30 234 63 234 140 c 2
 234 923 l 1
 234 929 l 1
EndSplineSet
EndChar

StartChar: V
Encoding: 86 86 22
Width: 300
VWidth: -123
Flags: HW
LayerCount: 2
Fore
SplineSet
155 137 m 1
 218 793 l 1
 219 923 l 1
 219 929 l 1
 224 929 l 1
 249 929 l 1
 254 929 l 1
 254 923 l 1
 254 794 l 1
 254 794 l 1
 254 793 l 1
 165 -120 l 1
 165 -125 l 1
 160 -125 l 1
 138 -125 l 1
 134 -125 l 1
 133 -120 l 1
 44 793 l 1
 44 794 l 1
 44 794 l 1
 44 923 l 1
 44 929 l 1
 49 929 l 1
 74 929 l 1
 79 929 l 1
 79 923 l 1
 80 793 l 1
 144 137 l 1
 155 137 l 1
EndSplineSet
EndChar

StartChar: W
Encoding: 87 87 23
Width: 327
VWidth: -123
Flags: HW
LayerCount: 2
Fore
SplineSet
215 92 m 1
 233 357 l 1
 232 923 l 1
 232 929 l 1
 237 929 l 1
 263 929 l 1
 268 929 l 1
 268 923 l 1
 268 363 l 1
 268 363 l 1
 268 362 l 1
 236 -120 l 1
 235 -125 l 1
 231 -125 l 1
 204 -125 l 1
 199 -125 l 1
 199 -120 l 1
 163 261 l 1
 127 -120 l 1
 126 -125 l 1
 122 -125 l 1
 96 -125 l 1
 91 -125 l 1
 91 -120 l 1
 58 362 l 1
 58 363 l 1
 58 363 l 1
 58 923 l 1
 58 929 l 1
 63 929 l 1
 88 929 l 1
 93 929 l 1
 93 923 l 1
 93 357 l 1
 111 95 l 1
 145 440 l 1
 145 593 l 1
 145 599 l 1
 150 599 l 1
 176 599 l 1
 181 599 l 1
 181 593 l 1
 181 440 l 1
 215 92 l 1
EndSplineSet
EndChar

StartChar: X
Encoding: 88 88 24
Width: 305
VWidth: -123
Flags: HW
LayerCount: 2
Fore
SplineSet
224 -125 m 1
 224 -119 l 1
 224 13 l 1
 153 381 l 1
 84 13 l 1
 84 -119 l 1
 84 -125 l 1
 79 -125 l 1
 54 -125 l 1
 49 -125 l 1
 49 -119 l 1
 49 35 l 1
 49 36 l 1
 49 36 l 1
 134 478 l 1
 49 922 l 1
 48 929 l 1
 54 929 l 1
 83 929 l 1
 87 929 l 1
 88 925 l 1
 153 579 l 1
 219 925 l 1
 220 929 l 1
 224 929 l 1
 253 929 l 1
 259 929 l 1
 258 922 l 1
 174 478 l 1
 258 36 l 1
 258 36 l 1
 258 35 l 1
 258 -119 l 1
 258 -125 l 1
 253 -125 l 1
 229 -125 l 1
 224 -125 l 1
EndSplineSet
EndChar

StartChar: Y
Encoding: 89 89 25
Width: 298
VWidth: -123
Flags: HW
LayerCount: 2
Fore
SplineSet
166 -125 m 1
 160 -125 l 1
 134 -125 l 1
 130 -125 l 1
 130 -119 l 1
 130 337 l 1
 43 793 l 1
 42 793 l 1
 42 794 l 1
 42 923 l 1
 42 929 l 1
 48 929 l 1
 72 929 l 1
 78 929 l 1
 78 923 l 1
 78 813 l 1
 147 446 l 1
 218 817 l 1
 218 923 l 1
 218 929 l 1
 222 929 l 1
 248 929 l 1
 252 929 l 1
 252 923 l 1
 252 794 l 1
 252 793 l 1
 252 793 l 1
 166 337 l 1
 166 -119 l 1
 166 -125 l 1
EndSplineSet
EndChar

StartChar: Z
Encoding: 90 90 26
Width: 305
VWidth: -123
Flags: HW
LayerCount: 2
Fore
SplineSet
257 -125 m 1
 252 -125 l 1
 53 -125 l 1
 48 -125 l 1
 48 -119 l 1
 48 -36 l 1
 48 -35 l 1
 48 -35 l 1
 216 834 l 1
 53 834 l 1
 48 834 l 1
 48 840 l 1
 48 923 l 1
 48 929 l 1
 53 929 l 1
 252 929 l 1
 257 929 l 1
 257 923 l 1
 257 841 l 1
 257 840 l 1
 256 840 l 1
 88 -30 l 1
 252 -30 l 1
 257 -30 l 1
 257 -36 l 1
 257 -119 l 1
 257 -125 l 1
EndSplineSet
EndChar

StartChar: a
Encoding: 97 97 27
Width: 326
VWidth: -87
Flags: HW
LayerCount: 2
Fore
SplineSet
144 286 m 5
 123 275 86 217 86 162 c 6
 86 98 l 6
 86 40 120 -42 132 -42 c 6
 163 -42 l 6
 189 -42 225 12 225 123 c 6
 225 294 l 5
 144 286 l 5
225 402 m 6
 224 458 196 526 168 526 c 6
 131 526 l 6
 111 526 108 457 86 457 c 4
 59 457 57 480 60 502 c 4
 68 557 99 597 131 597 c 6
 168 597 l 6
 209 597 269 535 269 383 c 6
 269 80 l 6
 269 66 268 45 269 27 c 4
 270 3 276 -8 280 -8 c 6
 283 -7 l 5
 285 -11 l 6
 286 -14 286 -18 286 -22 c 4
 269 -93 l 5
 241 -88 l 5
 238 -87 l 5
 237 -84 l 5
 228 -32 l 5
 217 -53 195 -94 156 -94 c 6
 131 -94 l 6
 100 -94 51 -18 51 95 c 6
 51 157 l 6
 51 249 95 325 141 350 c 6
 142 351 l 5
 142 351 l 5
 225 361 l 5
 225 402 l 6
EndSplineSet
EndChar

StartChar: b
Encoding: 98 98 28
Width: 333
VWidth: -122
Flags: HW
LayerCount: 2
Fore
SplineSet
157 499 m 2
 123 499 100 433 100 367 c 2
 100 78 l 2
 100 21 130 -39 157 -39 c 2
 182 -39 l 2
 213 -39 240 38 240 73 c 2
 240 367 l 2
 240 426 213 499 182 499 c 2
 157 499 l 2
100 -133 m 1
 95 -133 l 1
 70 -133 l 1
 65 -133 l 1
 65 -127 l 1
 65 933 l 1
 65 939 l 1
 70 939 l 1
 95 939 l 1
 100 939 l 1
 100 933 l 1
 100 554 l 2
 100 553 100 552 100 552 c 1
 110 555 136 585 157 585 c 2
 182 585 l 2
 226 585 274 479 274 364 c 2
 274 71 l 2
 274 -29 237 -133 182 -133 c 2
 157 -133 l 2
 135 -133 114 -105 100 -83 c 1
 100 -127 l 1
 100 -133 l 1
EndSplineSet
EndChar

StartChar: c
Encoding: 99 99 29
Width: 324
VWidth: -83
Flags: HW
LayerCount: 2
Fore
SplineSet
90 90 m 2
 90 -1 112 -43 135 -44 c 6
 197 -44 l 6
 205 -44 230 1 230 83 c 2
 230 149 l 1
 230 155 l 1
 235 155 l 1
 260 155 l 1
 265 155 l 1
 265 149 l 1
 265 87 l 2
 265 -49 238 -115 197 -115 c 2
 135 -115 l 2
 84 -115 56 -40 56 89 c 2
 56 400 l 2
 56 529 85 602 137 602 c 2
 194 602 l 2
 234 602 265 518 265 395 c 2
 265 328 l 1
 265 322 l 1
 260 322 l 1
 235 322 l 1
 230 322 l 1
 230 328 l 1
 230 395 l 2
 230 472 201 522 194 522 c 2
 137 522 l 2
 114 522 90 475 90 398 c 2
 90 90 l 2
EndSplineSet
EndChar

StartChar: d
Encoding: 100 100 30
Width: 329
VWidth: -121
Flags: HW
LayerCount: 2
Fore
SplineSet
161 517 m 6
 207 517 228 438 228 374 c 6
 228 86 l 6
 228 29 200 -43 161 -43 c 6
 136 -43 l 6
 93 -43 88 45 88 80 c 6
 88 374 l 6
 88 432 93 517 136 517 c 6
 161 517 l 6
228 -58 m 5
 228 -115 l 5
 273 -115 l 5
 273 935 l 5
 228 935 l 5
 228 561 l 6
 228 527 173 581 161 581 c 6
 136 581 l 6
 104 581 44 487 44 371 c 6
 44 78 l 6
 44 -23 93 -115 136 -115 c 6
 161 -115 l 6
 180 -115 205 -80 219 -55 c 6
 228 -39 l 5
 228 -58 l 5
EndSplineSet
EndChar

StartChar: e
Encoding: 101 101 31
Width: 327
VWidth: -82
Flags: HW
LayerCount: 2
Fore
SplineSet
93 94 m 17
 93 1 127 -57 148 -58 c 9
 188 -58 l 17
 200 -58 229 -38 229 41 c 9
 229 81 l 1
 229 86 l 1
 234 86 l 1
 263 86 l 1
 268 86 l 1
 268 81 l 1
 268 45 l 17
 268 -94 226 -109 188 -109 c 9
 148 -109 l 17
 95 -109 48 -32 48 94 c 13
 48 410 l 21
 48 542 87 600 138 600 c 9
 188 600 l 17
 228 600 268 519 268 395 c 9
 268 238 l 1
 268 233 l 1
 263 233 l 1
 93 235 l 1
 93 94 l 17
93 402 m 9
 93 299 l 1
 223 299 l 1
 223 389 l 17
 223 488 196 538 188 538 c 9
 138 538 l 17
 115 538 93 481 93 402 c 9
EndSplineSet
EndChar

StartChar: f
Encoding: 102 102 32
Width: 298
VWidth: -126
Flags: HW
LayerCount: 2
Fore
SplineSet
128 -126 m 1
 128 -120 l 1
 128 497 l 1
 46 497 l 1
 41 497 l 1
 41 503 l 1
 41 584 l 1
 41 589 l 1
 46 589 l 1
 128 589 l 1
 128 673 l 2
 128 787 154 946 196 946 c 2
 246 946 l 1
 251 946 l 1
 251 940 l 1
 251 858 l 1
 251 852 l 1
 246 852 l 1
 196 852 l 2
 183 851 164 752 164 673 c 2
 164 589 l 1
 246 589 l 1
 251 589 l 1
 251 584 l 1
 251 503 l 1
 251 497 l 1
 246 497 l 1
 164 497 l 1
 164 -120 l 1
 164 -126 l 1
 159 -126 l 1
 133 -126 l 1
 128 -126 l 1
EndSplineSet
EndChar

StartChar: g
Encoding: 103 103 33
Width: 333
VWidth: -53
Flags: HW
LayerCount: 2
Fore
SplineSet
175 41 m 2
 210 41 232 106 232 170 c 2
 232 453 l 2
 232 509 202 568 175 568 c 2
 150 568 l 2
 119 568 92 492 92 458 c 2
 92 170 l 2
 92 112 119 41 150 41 c 2
 175 41 l 2
232 664 m 1
 237 664 l 1
 262 664 l 1
 267 664 l 1
 267 658 l 1
 267 -90 l 2
 267 -281 232 -321 175 -321 c 2
 150 -321 l 2
 92 -321 58 -269 58 -92 c 2
 58 -36 l 1
 58 -31 l 1
 63 -30 l 1
 87 -29 l 1
 92 -29 l 1
 92 -35 l 1
 92 -90 l 2
 92 -216 114 -225 150 -225 c 2
 175 -225 l 2
 212 -225 232 -225 232 -90 c 2
 232 -19 l 2
 232 -18 232 -18 232 -18 c 1
 223 -22 196 -52 175 -52 c 2
 150 -52 l 2
 106 -52 58 56 58 170 c 2
 58 459 l 2
 58 558 95 664 150 664 c 2
 175 664 l 2
 198 664 218 634 232 612 c 1
 232 658 l 1
 232 664 l 1
EndSplineSet
EndChar

StartChar: h
Encoding: 104 104 34
Width: 335
VWidth: -122
Flags: HW
LayerCount: 2
Fore
SplineSet
54 -124 m 1
 54 -118 l 1
 54 932 l 1
 54 938 l 1
 59 938 l 1
 95 938 l 1
 100 938 l 1
 100 932 l 1
 100 494 l 1
 113 541 135 584 158 584 c 9
 183 584 l 17
 228 584 285 584 285 331 c 13
 285 -118 l 1
 285 -124 l 1
 280 -124 l 1
 245 -124 l 1
 240 -124 l 1
 240 -118 l 1
 240 336 l 21
 240 521 214 508 183 508 c 9
 158 508 l 17
 139 508 100 342 100 250 c 9
 100 -118 l 1
 100 -124 l 1
 95 -124 l 1
 59 -124 l 1
 54 -124 l 1
EndSplineSet
EndChar

StartChar: j
Encoding: 106 106 35
Width: 205
VWidth: -86
Flags: HW
LayerCount: 2
Fore
SplineSet
92 723 m 1
 92 728 l 1
 92 864 l 1
 92 869 l 1
 97 869 l 1
 134 867 l 1
 139 867 l 1
 139 861 l 1
 139 728 l 1
 139 723 l 1
 134 723 l 1
 97 723 l 1
 92 723 l 1
100 -12 m 1
 100 543 l 1
 58 543 l 5
 53 543 l 5
 53 549 l 5
 53 625 l 5
 53 630 l 5
 58 630 l 5
 134 630 l 1
 139 630 l 1
 139 625 l 1
 139 -10 l 2
 135 -213 101 -233 65 -245 c 2
 65 -245 l 1
 65 -245 l 1
 22 -253 l 1
 16 -254 l 1
 16 -247 l 1
 16 -227 l 1
 16 -222 l 1
 20 -221 l 1
 68 -200 l 2
 96 -188 102 -59 100 -12 c 1
EndSplineSet
EndChar

StartChar: k
Encoding: 107 107 36
Width: 311
VWidth: -126
Flags: HW
LayerCount: 2
Fore
SplineSet
65 -126 m 1
 65 -120 l 1
 65 940 l 1
 65 946 l 1
 70 946 l 1
 94 946 l 1
 99 946 l 1
 99 940 l 1
 99 267 l 1
 214 611 l 1
 215 615 l 1
 219 615 l 1
 257 615 l 1
 264 615 l 1
 261 607 l 1
 146 264 l 1
 273 -118 l 1
 276 -126 l 1
 269 -126 l 1
 232 -126 l 1
 228 -126 l 1
 227 -122 l 1
 122 195 l 1
 99 126 l 1
 99 -120 l 1
 99 -126 l 1
 94 -126 l 1
 70 -126 l 1
 65 -126 l 1
EndSplineSet
EndChar

StartChar: l
Encoding: 108 108 37
Width: 192
VWidth: -114
Flags: HW
LayerCount: 2
Fore
SplineSet
96 -148 m 1
 96 -142 l 1
 96 843 l 1
 42 843 l 1
 37 843 l 1
 37 849 l 1
 37 918 l 1
 37 924 l 1
 42 924 l 1
 121 924 l 1
 126 924 l 1
 126 918 l 1
 126 -142 l 1
 126 -148 l 1
 121 -148 l 1
 101 -148 l 1
 96 -148 l 1
EndSplineSet
EndChar

StartChar: m
Encoding: 109 109 38
Width: 334
VWidth: -83
Flags: HW
LayerCount: 2
Fore
SplineSet
61 -85 m 1
 61 -79 l 1
 61 626 l 1
 61 632 l 1
 66 632 l 1
 91 632 l 1
 96 632 l 1
 96 626 l 1
 96 546 l 1
 106 593 119 632 141 632 c 0
 162 632 169 577 172 550 c 1
 180 579 195 632 216 632 c 0
 259 632 271 510 271 331 c 2
 271 -79 l 1
 271 -85 l 1
 266 -85 l 1
 241 -85 l 1
 236 -85 l 1
 236 -79 l 1
 236 338 l 2
 236 392 233 538 216 548 c 1
 208 542 184 488 184 338 c 2
 184 -79 l 1
 184 -85 l 1
 179 -85 l 1
 153 -85 l 1
 148 -85 l 1
 148 -79 l 1
 148 338 l 2
 148 366 148 515 137 543 c 1
 124 514 96 375 96 338 c 2
 96 -79 l 1
 96 -85 l 1
 91 -85 l 1
 66 -85 l 1
 61 -85 l 1
EndSplineSet
EndChar

StartChar: n
Encoding: 110 110 39
Width: 333
VWidth: -83
Flags: HW
LayerCount: 2
Fore
SplineSet
51 -85 m 1
 51 -79 l 1
 51 626 l 1
 51 632 l 1
 56 632 l 1
 91 632 l 1
 96 632 l 1
 96 626 l 1
 96 530 l 1
 110 579 129 623 153 623 c 2
 190 623 l 2
 242 623 270 514 270 320 c 2
 270 -79 l 5
 270 -85 l 5
 265 -85 l 5
 241 -85 l 5
 236 -85 l 5
 236 -79 l 5
 236 325 l 2
 236 451 224 565 190 566 c 2
 153 566 l 2
 137 566 108 472 96 353 c 1
 96 -79 l 1
 96 -85 l 1
 91 -85 l 1
 56 -85 l 1
 51 -85 l 1
EndSplineSet
EndChar

StartChar: o
Encoding: 111 111 40
Width: 322
VWidth: -83
Flags: HW
LayerCount: 2
Fore
SplineSet
88 143 m 17
 88 34 109 -41 133 -41 c 9
 194 -41 l 17
 218 -41 238 31 238 143 c 9
 238 343 l 17
 238 444 224 508 194 508 c 9
 133 508 l 17
 102 508 88 447 88 343 c 9
 88 143 l 17
133 -125 m 17
 88 -125 44 -56 44 143 c 13
 44 343 l 21
 44 539 89 592 134 592 c 9
 194 592 l 17
 238 592 283 539 283 343 c 9
 283 143 l 17
 283 -56 243 -125 194 -125 c 9
 133 -125 l 17
EndSplineSet
EndChar

StartChar: p
Encoding: 112 112 41
Width: 374
VWidth: -53
Flags: HW
LayerCount: 2
Fore
SplineSet
187 -50 m 17
 140 -50 121 39 121 90 c 9
 121 373 l 17
 121 396 154 509 187 509 c 13
 213 509 l 21
 256 509 270 412 270 378 c 9
 270 90 l 17
 270 33 256 -50 213 -50 c 9
 187 -50 l 17
120 505 m 5
 120 583 l 5
 75 583 l 5
 75 -340 l 1
 120 -340 l 1
 120 -56 l 17
 120 -41 162 -121 187 -121 c 9
 213 -121 l 17
 245 -121 315 -25 315 90 c 9
 315 379 l 17
 315 479 256 583 213 583 c 13
 187 583 l 21
 161 583 145 529 129 502 c 13
 120 486 l 5
 120 505 l 5
EndSplineSet
EndChar

StartChar: q
Encoding: 113 113 42
Width: 329
VWidth: -53
Flags: HW
LayerCount: 2
Fore
SplineSet
171 41 m 2
 206 41 228 117 228 170 c 2
 228 453 l 2
 228 475 191 568 171 568 c 2
 146 568 l 2
 115 568 88 492 88 458 c 2
 88 170 l 2
 88 112 115 41 146 41 c 2
 171 41 l 2
228 664 m 1
 233 664 l 1
 258 664 l 1
 263 664 l 1
 263 658 l 1
 263 -315 l 1
 263 -321 l 1
 258 -321 l 1
 233 -321 l 1
 228 -321 l 1
 228 -315 l 1
 228 3 l 1
 218 -18 200 -52 171 -52 c 2
 146 -52 l 2
 102 -52 54 56 54 170 c 2
 54 459 l 2
 54 558 91 664 146 664 c 2
 171 664 l 2
 200 664 216 622 228 596 c 1
 228 658 l 1
 228 664 l 1
EndSplineSet
EndChar

StartChar: r
Encoding: 114 114 43
Width: 326
VWidth: -83
Flags: HWO
LayerCount: 2
Fore
SplineSet
100 -85 m 1
 100 -79 l 2
 100 148 100 375 100 602 c 1
 135.666992188 602 l 1
 135.801757812 569.579101562 135.459614797 537.348286672 135.666992188 505 c 1
 150.666992188 566 189 602 201 602 c 1
 227 602 l 1
 246 602 287 542 290 534 c 9
 290 525 290 526 290 517 c 1
 278.333007812 517 266.666992188 517 255 517 c 1
 255 523 l 1
 255 523 239 540 224 551 c 1
 218 555 206 553 206 553 c 1
 194 551 135.9453125 455.999023438 135.666992188 389 c 1
 135.008789062 230.991210938 136.282226562 73.05078125 135.666992188 -85 c 1
 130 -85 l 1
 105 -85 l 1
 100 -85 l 1
EndSplineSet
EndChar

StartChar: s
Encoding: 115 115 44
Width: 322
VWidth: -83
Flags: HW
LayerCount: 2
Fore
SplineSet
54 144 m 5
 59 144 l 5
 84 144 l 5
 89 144 l 5
 89 139 l 5
 89 79 l 6
 89 16 125 -20 147 -20 c 6
 172 -20 l 6
 217 -19 229 31 229 77 c 4
 229 217 136 185 84 273 c 4
 63 309 54 367 54 413 c 6
 54 452 l 6
 54 542 92 612 147 612 c 6
 172 612 l 6
 222 612 264 522 264 428 c 6
 264 360 l 5
 264 354 l 5
 259 354 l 5
 234 354 l 5
 229 354 l 5
 229 360 l 5
 229 428 l 6
 229 497 195 526 172 527 c 6
 147 527 l 6
 102 527 89 483 89 430 c 4
 89 290 184 319 233 233 c 4
 253 198 264 146 264 99 c 6
 264 52 l 6
 264 -40 226 -105 172 -105 c 6
 147 -105 l 6
 98 -105 54 -17 54 79 c 6
 54 139 l 5
 54 144 l 5
EndSplineSet
EndChar

StartChar: t
Encoding: 116 116 45
Width: 321
VWidth: -114
Flags: HW
LayerCount: 2
Fore
SplineSet
152 879 m 1
 157 879 l 1
 202 879 l 1
 207 879 l 1
 207 873 l 1
 207 588 l 1
 270 588 l 1
 275 588 l 1
 275 582 l 1
 275 502 l 1
 275 497 l 1
 270 497 l 1
 207 497 l 1
 207 52 l 5
 207 -74 220 -72 232 -72 c 9
 280 -72 l 1
 285 -72 l 1
 285 -77 l 1
 285 -122 l 1
 285 -128 l 1
 280 -128 l 1
 210 -128 l 17
 169 -128 152 -76 152 51 c 13
 152 497 l 1
 105 497 l 1
 100 497 l 1
 100 502 l 1
 100 582 l 1
 100 587 l 1
 105 587 l 1
 152 587 l 1
 152 873 l 1
 152 879 l 1
EndSplineSet
EndChar

StartChar: u
Encoding: 117 117 46
Width: 333
VWidth: -83
Flags: HW
LayerCount: 2
Fore
SplineSet
287 582 m 5
 287 576 l 5
 287 -118 l 5
 287 -124 l 5
 282 -124 l 5
 238 -124 l 5
 233 -124 l 5
 233 -118 l 5
 233 -19 l 5
 220 -70 198 -135 174 -135 c 6
 138 -135 l 6
 86 -135 48 -17 48 177 c 6
 48 576 l 5
 48 582 l 5
 53 582 l 5
 94 582 l 5
 99 582 l 5
 99 576 l 5
 99 179 l 6
 99 55 113 -66 138 -66 c 6
 174 -66 l 6
 190 -66 219 65 233 152 c 5
 233 576 l 5
 233 582 l 5
 238 582 l 5
 282 582 l 5
 287 582 l 5
EndSplineSet
EndChar

StartChar: v
Encoding: 118 118 47
Width: 308
VWidth: -83
Flags: HW
LayerCount: 2
Fore
SplineSet
48 632 m 1
 53 632 l 1
 78 632 l 1
 83 632 l 1
 83 626 l 1
 83 556 l 1
 144 94 l 1
 161 94 l 1
 223 553 l 1
 223 626 l 1
 223 632 l 1
 228 632 l 1
 253 632 l 1
 258 632 l 1
 258 626 l 1
 258 538 l 1
 258 538 l 1
 258 538 l 1
 174 -80 l 1
 173 -85 l 1
 169 -85 l 1
 136 -85 l 1
 131 -85 l 1
 131 -80 l 1
 48 538 l 1
 48 538 l 1
 48 538 l 1
 48 626 l 1
 48 632 l 1
EndSplineSet
EndChar

StartChar: w
Encoding: 119 119 48
Width: 327
VWidth: -83
Flags: HW
LayerCount: 2
Fore
SplineSet
95 -85 m 1
 94 -80 l 1
 56 245 l 1
 56 246 l 1
 56 246 l 1
 56 626 l 1
 56 632 l 1
 61 632 l 1
 86 632 l 1
 91 632 l 1
 91 626 l 1
 91 240 l 1
 111 66 l 1
 143 358 l 1
 143 448 l 1
 143 453 l 1
 148 453 l 1
 174 453 l 1
 179 453 l 1
 179 448 l 1
 179 358 l 1
 211 66 l 1
 231 240 l 1
 230 626 l 1
 230 632 l 1
 235 632 l 1
 261 632 l 1
 266 632 l 1
 266 626 l 1
 266 246 l 1
 266 246 l 1
 266 245 l 1
 228 -80 l 1
 228 -85 l 1
 223 -85 l 1
 198 -85 l 1
 194 -85 l 1
 193 -80 l 1
 161 206 l 1
 129 -80 l 1
 129 -85 l 1
 124 -85 l 1
 99 -85 l 1
 95 -85 l 1
EndSplineSet
EndChar

StartChar: x
Encoding: 120 120 49
Width: 305
VWidth: -83
Flags: HW
LayerCount: 2
Fore
SplineSet
223 -85 m 1
 223 -79 l 1
 223 -15 l 1
 154 245 l 1
 83 -17 l 1
 83 -79 l 1
 83 -85 l 1
 78 -85 l 1
 54 -85 l 1
 49 -85 l 1
 49 -79 l 1
 49 16 l 1
 49 17 l 1
 49 18 l 1
 132 322 l 1
 49 625 l 1
 48 632 l 1
 54 632 l 1
 87 632 l 1
 91 632 l 1
 92 628 l 1
 154 398 l 1
 215 628 l 1
 217 632 l 1
 220 632 l 1
 253 632 l 1
 260 632 l 1
 258 625 l 1
 176 322 l 1
 258 18 l 1
 258 17 l 1
 258 16 l 1
 258 -79 l 1
 258 -85 l 1
 253 -85 l 1
 228 -85 l 1
 223 -85 l 1
EndSplineSet
EndChar

StartChar: y
Encoding: 121 121 50
Width: 289
VWidth: -53
Flags: HW
LayerCount: 2
Fore
SplineSet
103 -158 m 2
 126 16 l 1
 40 657 l 1
 39 664 l 1
 45 664 l 1
 73 664 l 1
 77 664 l 1
 78 659 l 1
 145 148 l 1
 213 659 l 1
 214 664 l 1
 218 664 l 1
 245 664 l 1
 251 664 l 1
 250 657 l 1
 140 -160 l 2
 128 -254 116 -321 86 -321 c 2
 45 -321 l 1
 40 -321 l 1
 40 -315 l 1
 40 -231 l 1
 40 -225 l 1
 45 -225 l 1
 87 -225 l 2
 95 -225 94 -215 103 -158 c 2
EndSplineSet
EndChar

StartChar: z
Encoding: 122 122 51
Width: 317
VWidth: -83
Flags: HW
LayerCount: 2
Fore
SplineSet
261 -65 m 5
 256 -65 l 5
 56 -65 l 5
 51 -65 l 5
 51 -59 l 5
 51 18 l 5
 51 19 l 5
 51 20 l 5
 216 537 l 5
 56 537 l 5
 51 537 l 5
 51 542 l 5
 51 606 l 5
 51 612 l 5
 56 612 l 5
 256 612 l 5
 261 612 l 5
 261 606 l 5
 261 532 l 5
 261 531 l 5
 261 530 l 5
 96 10 l 5
 256 10 l 5
 261 10 l 5
 261 5 l 5
 261 -59 l 5
 261 -65 l 5
EndSplineSet
EndChar

StartChar: zero
Encoding: 48 48 52
Width: 324
VWidth: -126
Flags: HW
LayerCount: 2
Fore
SplineSet
160 -32 m 0
 179 -32 230 12 230 211 c 2
 230 609 l 2
 230 808 179 852 160 852 c 0
 141 852 90 807 90 609 c 2
 90 211 l 2
 91 9 141 -32 160 -32 c 0
265 608 m 2
 265 211 l 2
 265 13 217 -126 160 -126 c 0
 103 -126 61 14 61 211 c 2
 61 609 l 2
 61 805 103 946 160 946 c 0
 217 946 265 805 265 608 c 2
EndSplineSet
EndChar

StartChar: one
Encoding: 49 49 53
Width: 194
VWidth: -126
Flags: HW
LayerCount: 2
Fore
SplineSet
131 946 m 1
 131 940 l 1
 131 -120 l 1
 131 -126 l 1
 126 -126 l 1
 104 -126 l 1
 99 -126 l 1
 99 -120 l 1
 99 747 l 1
 44 748 l 1
 39 748 l 1
 39 753 l 1
 39 800 l 1
 39 803 l 1
 42 805 l 2
 60 816 77 845 82 860 c 2
 82 860 l 1
 82 861 l 2
 85 870 96 941 96 941 c 1
 97 946 l 1
 101 946 l 1
 126 946 l 1
 131 946 l 1
EndSplineSet
EndChar

StartChar: two
Encoding: 50 50 54
Width: 311
VWidth: -126
Flags: HW
LayerCount: 2
Fore
SplineSet
72 -48 m 1
 72 -42 l 1
 72 -41 l 1
 72 -41 72 -40 73 -37 c 2
 82 -37 l 1
 82 -48 l 1
 77 -48 l 1
 72 -48 l 1
70 -54 m 1
 72 -47 l 1
 72 -43 l 1
 73 -43 l 1
 87 9 240 563 240 627 c 2
 240 740 l 2
 240 856 190 935 158 935 c 2
 133 935 l 2
 102 935 51 845 51 728 c 2
 51 640 l 1
 66 640 l 1
 66 728 l 2
 66 782 90 879 133 879 c 2
 158 879 l 2
 202 879 226 795 226 740 c 2
 226 651 l 2
 226 611 57 8 51 -15 c 1
 51 -125 l 1
 240 -125 l 1
 240 -54 l 1
 82 -54 l 1
 77 -54 l 1
 72 -54 l 1
 70 -54 l 1
EndSplineSet
EndChar

StartChar: three
Encoding: 51 51 55
Width: 319
VWidth: -126
Flags: HW
LayerCount: 2
Fore
SplineSet
170 -53 m 2
 193 -53 220 -23 227 79 c 1
 227 255 l 2
 227 394 187 410 153 409 c 2
 148 409 l 1
 148 414 l 1
 148 495 l 1
 148 498 l 1
 150 500 l 2
 198 528 227 584 227 639 c 2
 227 741 l 2
 225 827 184 869 170 869 c 2
 145 870 l 2
 131 870 87 793 87 740 c 2
 87 673 l 1
 87 667 l 1
 82 667 l 1
 58 667 l 1
 53 667 l 1
 53 673 l 1
 53 740 l 2
 53 857 102 946 145 946 c 2
 170 946 l 2
 207 946 262 864 262 742 c 2
 262 640 l 2
 262 538 225 482 214 468 c 1
 225 453 262 396 262 270 c 2
 262 78 l 2
 262 14 238 -126 170 -126 c 2
 145 -126 l 2
 85 -126 53 -24 53 80 c 2
 53 146 l 1
 53 152 l 1
 58 152 l 1
 82 152 l 1
 87 152 l 1
 87 146 l 1
 87 80 l 2
 87 33 114 -53 145 -53 c 2
 170 -53 l 2
EndSplineSet
EndChar

StartChar: four
Encoding: 52 52 56
Width: 302
VWidth: -126
Flags: HW
LayerCount: 2
Fore
SplineSet
234 946 m 1
 234 940 l 1
 234 230 l 1
 253 230 l 1
 258 230 l 1
 258 224 l 1
 258 153 l 1
 258 147 l 1
 253 147 l 1
 234 147 l 1
 234 -120 l 1
 234 -126 l 1
 229 -126 l 1
 204 -126 l 1
 199 -126 l 1
 199 -120 l 1
 199 147 l 1
 54 147 l 1
 49 147 l 1
 49 153 l 1
 49 249 l 1
 49 249 l 1
 49 250 l 1
 194 941 l 1
 195 946 l 1
 199 946 l 1
 229 946 l 1
 234 946 l 1
199 230 m 1
 199 777 l 1
 86 230 l 1
 199 230 l 1
EndSplineSet
EndChar

StartChar: five
Encoding: 53 53 57
Width: 322
VWidth: -132
Flags: HW
LayerCount: 2
Fore
SplineSet
236 160 m 2
 236 274 l 2
 236 394 201 475 165 475 c 2
 94 475 l 1
 94 415 l 1
 94 409 l 1
 89 409 l 1
 66 409 l 1
 61 409 l 1
 61 415 l 1
 61 936 l 1
 61 942 l 1
 66 942 l 1
 241 942 l 1
 246 942 l 1
 246 936 l 1
 246 871 l 1
 246 866 l 1
 241 866 l 1
 94 866 l 1
 94 551 l 1
 165 551 l 2
 218 551 271 426 271 274 c 2
 271 159 l 2
 271 41 229 -104 176 -104 c 2
 150 -104 l 2
 100 -104 61 -12 61 94 c 2
 61 162 l 1
 61 167 l 1
 66 167 l 1
 89 167 l 1
 94 167 l 1
 94 162 l 1
 94 94 l 2
 94 36 121 -32 150 -32 c 2
 176 -32 l 2
 201 -32 236 61 236 160 c 2
EndSplineSet
EndChar

StartChar: six
Encoding: 54 54 58
Width: 335
VWidth: -125
Flags: HW
LayerCount: 2
Fore
SplineSet
93 146 m 2
 93 62 127 -44 155 -44 c 2
 187 -44 l 2
 215 -44 247 62 247 146 c 2
 247 347 l 2
 247 427 201 514 189 514 c 2
 155 514 l 2
 140 514 92 468 93 382 c 2
 93 146 l 2
281 347 m 2
 281 145 l 2
 281 13 250 -124 187 -124 c 2
 155 -124 l 2
 94 -124 63 14 63 145 c 2
 63 677 l 2
 63 834 123 937 180 937 c 2
 264 937 l 1
 269 937 l 1
 269 932 l 1
 269 879 l 1
 269 873 l 1
 264 873 l 1
 180 873 l 2
 149 873 91 792 91 678 c 2
 91 525 l 1
 109 559 133 597 155 597 c 2
 189 597 l 2
 229 597 281 468 281 347 c 2
EndSplineSet
EndChar

StartChar: seven
Encoding: 55 55 59
Width: 292
VWidth: -126
Flags: HW
LayerCount: 2
Fore
SplineSet
41 872 m 1
 41 878 l 1
 41 940 l 1
 41 946 l 1
 46 946 l 1
 247 946 l 1
 252 946 l 1
 252 940 l 1
 252 859 l 1
 252 858 l 1
 252 858 l 1
 126 -32 l 1
 126 -120 l 1
 126 -126 l 1
 121 -126 l 1
 96 -126 l 1
 91 -126 l 1
 91 -120 l 1
 91 -10 l 1
 91 -10 l 1
 91 -10 l 1
 213 872 l 1
 46 872 l 1
 41 872 l 1
EndSplineSet
EndChar

StartChar: eight
Encoding: 56 56 60
Width: 326
VWidth: -126
Flags: HW
LayerCount: 2
Fore
SplineSet
117 466 m 1
 102 484 60 554 60 676 c 2
 60 742 l 2
 60 818 91 946 152 946 c 2
 180 946 l 2
 241 946 268 818 268 742 c 2
 268 676 l 2
 268 555 215 482 200 465 c 1
 226 438 268 362 268 254 c 2
 268 143 l 2
 268 3 233 -126 176 -126 c 2
 152 -126 l 2
 102 -126 60 6 60 143 c 2
 60 258 l 2
 60 368 99 440 117 466 c 1
152 428 m 2
 136 428 94 332 94 258 c 2
 94 144 l 2
 94 65 133 -53 152 -53 c 2
 176 -53 l 2
 204 -53 234 65 234 144 c 2
 234 255 l 2
 234 297 191 428 176 428 c 2
 152 428 l 2
96 676 m 2
 96 607 141 512 152 512 c 2
 176 512 l 1
 188 519 234 624 234 676 c 2
 234 742 l 2
 234 787 209 852 176 852 c 2
 152 852 l 2
 123 852 96 796 96 742 c 2
 96 676 l 2
EndSplineSet
EndChar

StartChar: nine
Encoding: 57 57 61
Width: 326
VWidth: -126
Flags: HW
LayerCount: 2
Fore
SplineSet
230 677 m 2
 230 761 202 853 174 853 c 2
 136 853 l 2
 108 853 91 762 91 677 c 2
 91 477 l 2
 91 385 118 322 136 322 c 2
 174 322 l 2
 187 322 231 396 230 484 c 2
 230 677 l 2
56 476 m 2
 56 677 l 2
 56 808 73 948 136 948 c 2
 174 948 l 2
 235 948 265 809 265 678 c 2
 265 147 l 2
 265 -29 205 -126 148 -126 c 2
 61 -128 l 1
 56 -128 l 1
 56 -122 l 1
 56 -38 l 1
 56 -32 l 1
 61 -32 l 1
 148 -32 l 2
 190 -32 231 22 231 146 c 2
 231 297 l 1
 215 264 196 226 174 226 c 2
 136 226 l 2
 89 226 56 344 56 476 c 2
EndSplineSet
EndChar

StartChar: exclam
Encoding: 33 33 62
Width: 154
VWidth: -126
Flags: HW
LayerCount: 2
Fore
SplineSet
58 -0 m 1
 99 -0 l 1
 104 -0 l 1
 104 -6 l 1
 104 -126 l 1
 104 -131 l 1
 99 -131 l 1
 58 -131 l 1
 53 -131 l 1
 53 -126 l 1
 53 -6 l 1
 53 -0 l 1
 58 -0 l 1
61 136 m 1
 61 946 l 1
 61 951 l 1
 66 951 l 1
 91 951 l 1
 96 951 l 1
 96 946 l 1
 96 136 l 1
 96 131 l 1
 91 131 l 1
 66 131 l 1
 61 131 l 1
 61 136 l 1
EndSplineSet
EndChar

StartChar: dollar
Encoding: 36 36 63
Width: 323
VWidth: -126
Flags: HW
LayerCount: 2
Fore
SplineSet
171 750 m 1
 171 804 l 1
 181 804 l 1
 181 761 l 1024
233 619 m 2
 233 716 203 742 181 746 c 1
 181 436 l 1
 200 417 218 401 228 382 c 0
 249 343 268 313 268 242 c 2
 268 173 l 2
 268 40 232 -13 181 -16 c 1
 181 -120 l 1
 181 -126 l 1
 176 -126 l 1
 150 -126 l 1
 145 -126 l 1
 145 -120 l 1
 145 -15 l 1
 97 -9 58 73 58 208 c 2
 58 295 l 1
 58 300 l 1
 63 300 l 1
 88 300 l 1
 93 300 l 1
 93 295 l 1
 93 208 l 2
 93 120 124 85 145 80 c 1
 145 359 l 1
 122 382 103 403 89 434 c 0
 66 485 58 523 58 592 c 2
 58 653 l 2
 58 784 94 838 145 841 c 1
 145 940 l 1
 145 946 l 1
 150 946 l 1
 176 946 l 1
 181 946 l 1
 181 940 l 1
 181 841 l 1
 230 835 268 754 268 619 c 2
 268 520 l 1
 268 515 l 1
 263 515 l 1
 238 515 l 1
 233 515 l 1
 233 520 l 1
 233 619 l 2
145 474 m 1
 145 750 l 1
 105 746 93 699 93 621 c 0
 93 552 117 507 145 474 c 1
181 323 m 1
 181 76 l 1
 222 81 234 138 233 205 c 0
 232 258 209 292 181 323 c 1
EndSplineSet
EndChar

StartChar: comma
Encoding: 44 44 64
Width: 163
VWidth: -31
Flags: HW
LayerCount: 2
Fore
SplineSet
108 236 m 1
 108 60 l 2
 108 1 92 -38 77 -38 c 0
 76 -38 56 -42 51 -36 c 2
 50 -34 l 1
 50 -32 l 2
 48 68 74 2 76 88 c 0
 77 105 61 128 61 128 c 1
 60 130 l 1
 60 132 l 1
 60 236 l 1
 60 242 l 1
 65 242 l 1
 103 242 l 1
 108 242 l 1
 108 236 l 1
EndSplineSet
EndChar

StartChar: period
Encoding: 46 46 65
Width: 175
VWidth: -23
Flags: HW
LayerCount: 2
Fore
SplineSet
120 151 m 1
 120 -5 l 1
 120 -11 l 1
 116 -11 l 1
 60 -11 l 1
 54 -11 l 1
 54 -5 l 1
 54 151 l 1
 54 157 l 1
 60 157 l 1
 116 157 l 1
 120 157 l 1
 120 151 l 1
EndSplineSet
EndChar

StartChar: hyphen
Encoding: 45 45 66
Width: 314
VWidth: -133
Flags: HW
LayerCount: 2
Fore
SplineSet
58 475 m 1
 257 476 l 1
 262 476 l 1
 262 470 l 1
 262 400 l 1
 262 394 l 1
 257 394 l 1
 58 393 l 1
 53 393 l 1
 53 399 l 1
 53 469 l 1
 53 475 l 1
 58 475 l 1
EndSplineSet
EndChar

StartChar: parenleft
Encoding: 40 40 67
Width: 204
VWidth: -129
Flags: HW
LayerCount: 2
Fore
SplineSet
171 -182 m 1
 166 -182 l 1
 161 -182 l 1
 161 -181 l 1
 105 -164 48 138 48 393 c 0
 48 605 107 983 161 1005 c 1
 161 1006 l 1
 166 1006 l 1
 171 1006 l 1
 174 1006 l 1
 171 999 l 1
 171 995 l 1
 169 995 l 1
 137 919 83 643 83 397 c 0
 83 94 130 -71 169 -171 c 1
 171 -171 l 1
 171 -175 l 1
 173 -182 l 1
 171 -182 l 1
EndSplineSet
EndChar

StartChar: parenright
Encoding: 41 41 68
Width: 201
VWidth: -125
Flags: HW
LayerCount: 2
Fore
SplineSet
34 983 m 1
 44 983 l 1
 44 972 l 1
 34 972 l 1
 34 983 l 1
49 -159 m 1
 93 -117 147 158 147 401 c 0
 147 600 92 905 50 963 c 1
 83 873 132 639 132 404 c 0
 132 109 88 -58 49 -159 c 1
34 -164 m 1
 44 -164 l 1
 44 -175 l 1
 34 -175 l 1
 34 -164 l 1
EndSplineSet
EndChar

StartChar: asterisk
Encoding: 42 42 69
Width: 254
VWidth: -124
Flags: HW
LayerCount: 2
Fore
SplineSet
145 389 m 1
 214 160 l 1
 199 109 l 1
 142 298 l 1
 142 298 142 293 142 291 c 2
 142 -10 l 1
 114 -12 l 1
 114 299 l 1
 112 295 l 1
 58 106 l 1
 42 158 l 1
 111 389 l 1
 112 396 l 1
 111 405 l 1
 43 630 l 1
 59 680 l 1
 112 502 l 1
 114 497 l 1
 114 818 l 1
 142 818 l 1
 142 501 l 1
 142 502 l 1
 199 687 l 1
 214 635 l 1
 145 405 l 1
 144 396 l 1
 145 389 l 1
EndSplineSet
EndChar

StartChar: numbersign
Encoding: 35 35 70
Width: 288
VWidth: -123
Flags: HW
LayerCount: 2
Fore
SplineSet
74 -50 m 1
 90 -50 l 1
 90 205 l 1
 90 211 l 1
 95 211 l 1
 145 211 l 1
 150 211 l 1
 150 205 l 1
 150 -50 l 1
 165 -50 l 1
 165 205 l 1
 165 211 l 1
 170 211 l 1
 234 211 l 1
 234 284 l 1
 198 284 l 1
 193 284 l 1
 193 290 l 1
 193 495 l 1
 193 501 l 1
 198 501 l 1
 234 501 l 1
 234 574 l 1
 219 574 l 1
 214 574 l 1
 214 579 l 1
 214 855 l 1
 199 855 l 1
 199 579 l 1
 199 574 l 1
 194 574 l 1
 144 574 l 1
 139 574 l 1
 139 579 l 1
 139 855 l 1
 124 855 l 1
 124 579 l 1
 124 574 l 1
 119 574 l 1
 56 574 l 1
 56 501 l 1
 97 501 l 1
 102 501 l 1
 102 495 l 1
 102 290 l 1
 102 284 l 1
 97 284 l 1
 56 282 l 1
 56 211 l 1
 69 211 l 1
 74 211 l 1
 74 205 l 1
 74 -50 l 1
173 284 m 1
 122 284 l 1
 117 284 l 1
 117 290 l 1
 117 495 l 1
 117 501 l 1
 122 501 l 1
 173 501 l 1
 178 501 l 1
 178 495 l 1
 178 290 l 1
 178 284 l 1
 173 284 l 1
EndSplineSet
EndChar

StartChar: colon
Encoding: 58 58 71
Width: 180
VWidth: -107
Flags: HW
LayerCount: 2
Fore
SplineSet
124 687 m 1
 124 539 l 1
 124 534 l 1
 119 534 l 1
 63 534 l 1
 58 534 l 1
 58 539 l 1
 58 687 l 1
 58 692 l 1
 63 692 l 1
 119 692 l 1
 124 692 l 1
 124 687 l 1
122 101 m 1
 122 -31 l 1
 122 -36 l 1
 117 -36 l 1
 63 -36 l 1
 58 -36 l 1
 58 -31 l 1
 58 101 l 1
 58 107 l 1
 63 107 l 1
 117 107 l 1
 122 107 l 1
 122 101 l 1
EndSplineSet
EndChar

StartChar: slash
Encoding: 47 47 72
Width: 249
VWidth: -131
Flags: HW
LayerCount: 2
Fore
SplineSet
60 -177 m 1
 37 -139 l 1
 36 -137 l 1
 36 -135 l 1
 183 995 l 1
 185 1010 l 1
 192 997 l 1
 215 956 l 1
 216 955 l 1
 216 953 l 1
 69 -175 l 1
 67 -189 l 1
 60 -177 l 1
EndSplineSet
EndChar
